<?xml version="1.0" encoding="utf-8"?>
<!-- Generator: Adobe Illustrator 16.2.0, SVG Export Plug-In . SVG Version: 6.00 Build 0)  -->
<!DOCTYPE svg PUBLIC "-//W3C//DTD SVG 1.1//EN" "http://www.w3.org/Graphics/SVG/1.1/DTD/svg11.dtd">
<svg version="1.1" id="Layer_1" xmlns="http://www.w3.org/2000/svg" xmlns:xlink="http://www.w3.org/1999/xlink" x="0px" y="0px"
	 width="308.98px" height="430.87px" viewBox="0 0 308.98 430.87" enable-background="new 0 0 308.98 430.87" xml:space="preserve">
<path d="M154.256,106.474c-59.918,0-108.439,48.626-108.439,108.637c0,60.034,48.521,108.649,108.439,108.649
	c60.337,0,108.859-48.615,108.859-108.649C263.115,155.1,214.594,106.474,154.256,106.474z M63.762,229.152
	c13.563-2.086,22.723-1.072,32.277-0.746c0.513,1.328,1.072,2.609,1.701,3.857c-9.345,0.338-18.854,0.035-32.743,3.262
	C64.531,233.416,64.112,231.309,63.762,229.152z M132.116,267.092c-4.334,2.121-18.131,7.271-26.451-6.967
	c0,0-4.661-8.473-13.517-9.102c0,0-8.623-0.105-0.606,5.373c0,0,5.78,2.703,9.788,12.898c0,0,5.244,17.396,30.228,11.723
	l0.069,17.992c0,0-0.187,2.283-1.607,4.59c-32.092-8.809-57.145-34.678-64.835-67.305c14.053-3.273,23.701-2.936,32.977-3.264
	c6.479,11.992,19.156,19.693,41.716,22.035C136.661,257.246,133.421,260.916,132.116,267.092z M129.949,271.172
	c0,0.676-0.77,1.199-1.701,1.211c-0.956,0-1.725-0.523-1.725-1.188c0-0.654,0.769-1.201,1.701-1.201
	C129.179,269.982,129.949,270.529,129.949,271.172z M124.333,272.139c0.023,0.641-0.746,1.188-1.701,1.188
	c-0.956,0-1.725-0.535-1.725-1.188c0-0.664,0.769-1.201,1.725-1.201C123.563,270.938,124.333,271.463,124.333,272.139z
	 M118.809,272.15c0,0.641-0.746,1.188-1.701,1.199c-0.979,0-1.725-0.547-1.748-1.188c0-0.676,0.769-1.201,1.725-1.201
	C118.04,270.961,118.809,271.486,118.809,272.15z M113.239,270.041c0,0.664-0.769,1.199-1.725,1.199
	c-0.932,0-1.701-0.523-1.701-1.199c0-0.641,0.746-1.189,1.701-1.189C112.47,268.84,113.239,269.389,113.239,270.041z
	 M101.959,258.016c0.932,0,1.725,0.523,1.725,1.188s-0.793,1.189-1.725,1.201c-0.956,0-1.725-0.525-1.725-1.189
	S101.003,258.016,101.959,258.016z M99.046,256.967c-0.956,0.012-1.725-0.537-1.748-1.189c0-0.664,0.792-1.188,1.725-1.188
	c0.955-0.012,1.725,0.523,1.725,1.176C100.771,256.43,99.978,256.967,99.046,256.967z M104.616,261.977
	c0.933,0,1.725,0.537,1.725,1.189c0,0.664-0.769,1.199-1.701,1.211c-0.955,0-1.748-0.535-1.748-1.188
	C102.891,262.525,103.661,261.977,104.616,261.977z M107.552,265.684c0.933,0,1.701,0.535,1.701,1.188
	c0,0.676-0.745,1.201-1.701,1.213c-0.955,0-1.725-0.537-1.725-1.201C105.828,266.242,106.597,265.695,107.552,265.684z
	 M95.97,253.133c0,0.652-0.746,1.189-1.702,1.201c-0.955,0-1.725-0.525-1.725-1.189s0.77-1.199,1.725-1.199
	C95.201,251.934,95.97,252.469,95.97,253.133z M143.233,306.188c-1.212-0.152-2.4-0.303-3.589-0.49
	c1.234-1.467,2.051-3.508,2.027-6.455l-0.047-19.635c0,0-0.699-7.76,3.123-10.486l0.116,32.23
	C144.864,301.352,144.608,303.729,143.233,306.188z M154.28,306.863c-0.07,0-0.141-0.012-0.187-0.012
	c0.769-1.574,1.258-3.555,1.352-6.07l0.139-32.617l2.68-0.012l0.35,32.605c0.117,2.457,0.607,4.393,1.307,5.918
	C158.055,306.781,156.168,306.863,154.28,306.863z M169.895,305.523c-0.607-2.297-0.676-4.266-0.676-4.266l-0.117-31.951
	c3.822,2.959,3.217,10.195,3.217,10.195l0.068,19.635c0,2.436,0.561,4.266,1.445,5.641
	C172.527,305.068,171.199,305.301,169.895,305.523z M184.344,301.852c-1.701-1.584-1.912-3.018-1.912-3.018l-0.094-25.729
	c-0.023-10.033-4.264-15.322-8.389-18.119c24.004-2.471,35.518-10.289,40.783-22.385c9.205,0.221,15.732-0.77,29.318,2.342
	C237.176,266.254,214.312,291.527,184.344,301.852z M244.236,234.186c-13.445-3.088-19.902-2.145-29.154-2.377
	c0.49-1.223,0.934-2.494,1.305-3.799c9.299-0.432,16.035-1.945,28.945-0.162C245.029,229.99,244.68,232.088,244.236,234.186z
	 M216.621,227.205c1.748-6.443,2.283-13.841,2.236-22.091c-0.023-11.84-4.521-21.302-11.746-28.469
	c1.236-4.078,2.891-13.132-1.77-24.703c0,0-8.158-2.551-26.568,9.87c-7.225-1.782-14.916-2.634-22.605-2.622
	c-8.484,0.035-17.037,1.143-25.007,3.367c-19.087-12.934-27.477-10.242-27.477-10.242c-5.431,13.762-2.005,23.912-0.979,26.439
	c-6.385,6.992-10.301,15.906-10.277,26.812c0.047,8.227,1.002,15.615,3.31,22.023c-9.578-0.303-18.668-1.305-32.068,0.77
	c-0.629-4.322-0.955-8.74-0.955-13.249c-0.023-50.665,40.994-91.753,91.566-91.753c50.968,0,91.962,41.088,91.962,91.753
	c0,4.055-0.303,8.04-0.816,11.956C232.631,225.283,225.943,226.787,216.621,227.205z"/>
</svg>
